<svg xmlns="http://www.w3.org/2000/svg" width="1280" height="640" viewBox="0 0 1280 640" role="img" aria-labelledby="title desc">
<title id="title">OPH across the sciences social card</title>
<desc id="desc">A compact social card showing the main scientific domains OPH overlaps with and a few representative subareas for each.</desc>
<defs>
  <linearGradient id="bg" x1="0" y1="0" x2="1" y2="1"><stop offset="0%" stop-color="#05070B"/><stop offset="55%" stop-color="#070A11"/><stop offset="100%" stop-color="#090D16"/></linearGradient>
  <filter id="softShadow" x="-30%" y="-30%" width="160%" height="160%"><feDropShadow dx="0" dy="10" stdDeviation="16" flood-color="#000000" flood-opacity="0.34"/></filter>
  <filter id="glowBlur" x="-40%" y="-40%" width="180%" height="180%"><feGaussianBlur stdDeviation="30"/></filter>
  <pattern id="grid" width="48" height="48" patternUnits="userSpaceOnUse"><path d="M 48 0 L 0 0 0 48" fill="none" stroke="#4EE7FF" stroke-opacity="0.035" stroke-width="1"/></pattern>
</defs>
<rect x="0" y="0" width="1280" height="640" fill="url(#bg)"/>
<rect x="0" y="0" width="1280" height="640" fill="url(#grid)" opacity="0.6"/>
<g opacity="0.62">
<circle cx="130" cy="140" r="200" fill="#4EE7FF" fill-opacity="0.06" filter="url(#glowBlur)"/>
<circle cx="1110" cy="88" r="180" fill="#7CA6FF" fill-opacity="0.09" filter="url(#glowBlur)"/>
<circle cx="1120" cy="560" r="220" fill="#FF8F97" fill-opacity="0.07" filter="url(#glowBlur)"/>
<circle cx="250" cy="560" r="220" fill="#D4B56E" fill-opacity="0.05" filter="url(#glowBlur)"/>
</g>
<text x="640.0" y="62.0" fill="#F4F7FB" font-size="36" text-anchor="middle" font-weight="780" font-family="Avenir Next, Helvetica Neue, Helvetica, Arial, sans-serif">
  <tspan x="640.0" dy="0.0">OPH Across the Sciences</tspan>
</text>
<rect x="26" y="88" width="1228" height="526" rx="34" fill="#090D14" fill-opacity="0.56" stroke="#263445" stroke-width="1.1"/>
<rect x="42" y="116" width="272" height="184" rx="24" fill="#0A0E16" stroke="#D4B56E" stroke-opacity="0.18" stroke-width="1.2" filter="url(#softShadow)"/>
<circle cx="84" cy="150" r="32" fill="#D4B56E" fill-opacity="0.10" filter="url(#glowBlur)"/>
<rect x="60" y="134" width="68" height="6" rx="3" fill="#D4B56E" opacity="0.95"/>
<rect x="60" y="134" width="6" height="142" rx="3" fill="#D4B56E" opacity="0.95"/>
<text x="142.0" y="162.0" fill="#D4B56E" font-size="20" text-anchor="start" font-weight="760" font-family="Avenir Next, Helvetica Neue, Helvetica, Arial, sans-serif">
  <tspan x="142.0" dy="0.0">Mathematics</tspan>
</text>
<circle cx="144" cy="206" r="3" fill="#D4B56E" opacity="0.92"/>
<text x="156.0" y="212.0" fill="#F4F7FB" font-size="16" text-anchor="start" font-family="Avenir Next, Helvetica Neue, Helvetica, Arial, sans-serif">
  <tspan x="156.0" dy="0.0">abstract algebra</tspan>
</text>
<circle cx="144" cy="238" r="3" fill="#D4B56E" opacity="0.92"/>
<text x="156.0" y="244.0" fill="#F4F7FB" font-size="16" text-anchor="start" font-family="Avenir Next, Helvetica Neue, Helvetica, Arial, sans-serif">
  <tspan x="156.0" dy="0.0">topology + cohomology</tspan>
</text>
<circle cx="144" cy="270" r="3" fill="#D4B56E" opacity="0.92"/>
<text x="156.0" y="276.0" fill="#F4F7FB" font-size="16" text-anchor="start" font-family="Avenir Next, Helvetica Neue, Helvetica, Arial, sans-serif">
  <tspan x="156.0" dy="0.0">fixed-point theory</tspan>
</text>
<rect x="350" y="116" width="272" height="184" rx="24" fill="#0A0E16" stroke="#7CA6FF" stroke-opacity="0.18" stroke-width="1.2" filter="url(#softShadow)"/>
<circle cx="392" cy="150" r="32" fill="#7CA6FF" fill-opacity="0.10" filter="url(#glowBlur)"/>
<rect x="368" y="134" width="68" height="6" rx="3" fill="#7CA6FF" opacity="0.95"/>
<rect x="368" y="134" width="6" height="142" rx="3" fill="#7CA6FF" opacity="0.95"/>
<text x="450.0" y="162.0" fill="#7CA6FF" font-size="20" text-anchor="start" font-weight="760" font-family="Avenir Next, Helvetica Neue, Helvetica, Arial, sans-serif">
  <tspan x="450.0" dy="0.0">Computer Science</tspan>
</text>
<circle cx="452" cy="206" r="3" fill="#7CA6FF" opacity="0.92"/>
<text x="464.0" y="212.0" fill="#F4F7FB" font-size="16" text-anchor="start" font-family="Avenir Next, Helvetica Neue, Helvetica, Arial, sans-serif">
  <tspan x="464.0" dy="0.0">distributed consensus</tspan>
</text>
<circle cx="452" cy="238" r="3" fill="#7CA6FF" opacity="0.92"/>
<text x="464.0" y="244.0" fill="#F4F7FB" font-size="16" text-anchor="start" font-family="Avenir Next, Helvetica Neue, Helvetica, Arial, sans-serif">
  <tspan x="464.0" dy="0.0">rewriting + confluence</tspan>
</text>
<circle cx="452" cy="270" r="3" fill="#7CA6FF" opacity="0.92"/>
<text x="464.0" y="276.0" fill="#F4F7FB" font-size="16" text-anchor="start" font-family="Avenir Next, Helvetica Neue, Helvetica, Arial, sans-serif">
  <tspan x="464.0" dy="0.0">fault tolerance / BFT</tspan>
</text>
<rect x="658" y="116" width="272" height="184" rx="24" fill="#0A0E16" stroke="#E7C869" stroke-opacity="0.18" stroke-width="1.2" filter="url(#softShadow)"/>
<circle cx="700" cy="150" r="32" fill="#E7C869" fill-opacity="0.10" filter="url(#glowBlur)"/>
<rect x="676" y="134" width="68" height="6" rx="3" fill="#E7C869" opacity="0.95"/>
<rect x="676" y="134" width="6" height="142" rx="3" fill="#E7C869" opacity="0.95"/>
<text x="750.0" y="162.0" fill="#E7C869" font-size="19" text-anchor="start" font-weight="760" font-family="Avenir Next, Helvetica Neue, Helvetica, Arial, sans-serif">
  <tspan x="750.0" dy="0.0">Information +</tspan>
  <tspan x="750.0" dy="25.0">Inference</tspan>
</text>
<circle cx="760" cy="216" r="3" fill="#E7C869" opacity="0.92"/>
<text x="772.0" y="222.0" fill="#F4F7FB" font-size="16" text-anchor="start" font-family="Avenir Next, Helvetica Neue, Helvetica, Arial, sans-serif">
  <tspan x="772.0" dy="0.0">information theory</tspan>
</text>
<circle cx="760" cy="248" r="3" fill="#E7C869" opacity="0.92"/>
<text x="772.0" y="254.0" fill="#F4F7FB" font-size="16" text-anchor="start" font-family="Avenir Next, Helvetica Neue, Helvetica, Arial, sans-serif">
  <tspan x="772.0" dy="0.0">Markov structure</tspan>
</text>
<circle cx="760" cy="280" r="3" fill="#E7C869" opacity="0.92"/>
<text x="772.0" y="286.0" fill="#F4F7FB" font-size="16" text-anchor="start" font-family="Avenir Next, Helvetica Neue, Helvetica, Arial, sans-serif">
  <tspan x="772.0" dy="0.0">recoverability</tspan>
</text>
<rect x="966" y="116" width="272" height="184" rx="24" fill="#0A0E16" stroke="#98C77B" stroke-opacity="0.18" stroke-width="1.2" filter="url(#softShadow)"/>
<circle cx="1008" cy="150" r="32" fill="#98C77B" fill-opacity="0.10" filter="url(#glowBlur)"/>
<rect x="984" y="134" width="68" height="6" rx="3" fill="#98C77B" opacity="0.95"/>
<rect x="984" y="134" width="6" height="142" rx="3" fill="#98C77B" opacity="0.95"/>
<text x="1054.0" y="162.0" fill="#98C77B" font-size="19" text-anchor="start" font-weight="760" font-family="Avenir Next, Helvetica Neue, Helvetica, Arial, sans-serif">
  <tspan x="1054.0" dy="0.0">Complex Systems +</tspan>
  <tspan x="1054.0" dy="25.0">Networks</tspan>
</text>
<circle cx="1068" cy="216" r="3" fill="#98C77B" opacity="0.92"/>
<text x="1080.0" y="222.0" fill="#F4F7FB" font-size="16" text-anchor="start" font-family="Avenir Next, Helvetica Neue, Helvetica, Arial, sans-serif">
  <tspan x="1080.0" dy="0.0">network dynamics</tspan>
</text>
<circle cx="1068" cy="248" r="3" fill="#98C77B" opacity="0.92"/>
<text x="1080.0" y="254.0" fill="#F4F7FB" font-size="16" text-anchor="start" font-family="Avenir Next, Helvetica Neue, Helvetica, Arial, sans-serif">
  <tspan x="1080.0" dy="0.0">synchronization</tspan>
</text>
<circle cx="1068" cy="280" r="3" fill="#98C77B" opacity="0.92"/>
<text x="1080.0" y="286.0" fill="#F4F7FB" font-size="16" text-anchor="start" font-family="Avenir Next, Helvetica Neue, Helvetica, Arial, sans-serif">
  <tspan x="1080.0" dy="0.0">robustness</tspan>
</text>
<rect x="196" y="358" width="272" height="184" rx="24" fill="#0A0E16" stroke="#4EE7FF" stroke-opacity="0.18" stroke-width="1.2" filter="url(#softShadow)"/>
<circle cx="238" cy="392" r="32" fill="#4EE7FF" fill-opacity="0.10" filter="url(#glowBlur)"/>
<rect x="214" y="376" width="68" height="6" rx="3" fill="#4EE7FF" opacity="0.95"/>
<rect x="214" y="376" width="6" height="142" rx="3" fill="#4EE7FF" opacity="0.95"/>
<text x="296.0" y="404.0" fill="#4EE7FF" font-size="20" text-anchor="start" font-weight="760" font-family="Avenir Next, Helvetica Neue, Helvetica, Arial, sans-serif">
  <tspan x="296.0" dy="0.0">Theoretical Physics</tspan>
</text>
<circle cx="298" cy="448" r="3" fill="#4EE7FF" opacity="0.92"/>
<text x="310.0" y="454.0" fill="#F4F7FB" font-size="16" text-anchor="start" font-family="Avenir Next, Helvetica Neue, Helvetica, Arial, sans-serif">
  <tspan x="310.0" dy="0.0">gauge theory</tspan>
</text>
<circle cx="298" cy="480" r="3" fill="#4EE7FF" opacity="0.92"/>
<text x="310.0" y="486.0" fill="#F4F7FB" font-size="16" text-anchor="start" font-family="Avenir Next, Helvetica Neue, Helvetica, Arial, sans-serif">
  <tspan x="310.0" dy="0.0">relativity / gravity</tspan>
</text>
<circle cx="298" cy="512" r="3" fill="#4EE7FF" opacity="0.92"/>
<text x="310.0" y="518.0" fill="#F4F7FB" font-size="16" text-anchor="start" font-family="Avenir Next, Helvetica Neue, Helvetica, Arial, sans-serif">
  <tspan x="310.0" dy="0.0">particle physics</tspan>
</text>
<rect x="504" y="358" width="272" height="184" rx="24" fill="#0A0E16" stroke="#FF8F97" stroke-opacity="0.18" stroke-width="1.2" filter="url(#softShadow)"/>
<circle cx="546" cy="392" r="32" fill="#FF8F97" fill-opacity="0.10" filter="url(#glowBlur)"/>
<rect x="522" y="376" width="68" height="6" rx="3" fill="#FF8F97" opacity="0.95"/>
<rect x="522" y="376" width="6" height="142" rx="3" fill="#FF8F97" opacity="0.95"/>
<text x="580.0" y="404.0" fill="#FF8F97" font-size="19" text-anchor="start" font-weight="760" font-family="Avenir Next, Helvetica Neue, Helvetica, Arial, sans-serif">
  <tspan x="580.0" dy="0.0">Quantum Information</tspan>
  <tspan x="580.0" dy="25.0">Science</tspan>
</text>
<circle cx="606" cy="458" r="3" fill="#FF8F97" opacity="0.92"/>
<text x="618.0" y="464.0" fill="#F4F7FB" font-size="16" text-anchor="start" font-family="Avenir Next, Helvetica Neue, Helvetica, Arial, sans-serif">
  <tspan x="618.0" dy="0.0">entanglement structure</tspan>
</text>
<circle cx="606" cy="490" r="3" fill="#FF8F97" opacity="0.92"/>
<text x="618.0" y="496.0" fill="#F4F7FB" font-size="16" text-anchor="start" font-family="Avenir Next, Helvetica Neue, Helvetica, Arial, sans-serif">
  <tspan x="618.0" dy="0.0">quantum channels</tspan>
</text>
<circle cx="606" cy="522" r="3" fill="#FF8F97" opacity="0.92"/>
<text x="618.0" y="528.0" fill="#F4F7FB" font-size="16" text-anchor="start" font-family="Avenir Next, Helvetica Neue, Helvetica, Arial, sans-serif">
  <tspan x="618.0" dy="0.0">QECC</tspan>
</text>
<rect x="812" y="358" width="272" height="184" rx="24" fill="#0A0E16" stroke="#B98B67" stroke-opacity="0.18" stroke-width="1.2" filter="url(#softShadow)"/>
<circle cx="854" cy="392" r="32" fill="#B98B67" fill-opacity="0.10" filter="url(#glowBlur)"/>
<rect x="830" y="376" width="68" height="6" rx="3" fill="#B98B67" opacity="0.95"/>
<rect x="830" y="376" width="6" height="142" rx="3" fill="#B98B67" opacity="0.95"/>
<text x="894.0" y="404.0" fill="#B98B67" font-size="19" text-anchor="start" font-weight="760" font-family="Avenir Next, Helvetica Neue, Helvetica, Arial, sans-serif">
  <tspan x="894.0" dy="0.0">Foundations +</tspan>
  <tspan x="894.0" dy="25.0">Measurement</tspan>
</text>
<circle cx="914" cy="458" r="3" fill="#B98B67" opacity="0.92"/>
<text x="926.0" y="464.0" fill="#F4F7FB" font-size="16" text-anchor="start" font-family="Avenir Next, Helvetica Neue, Helvetica, Arial, sans-serif">
  <tspan x="926.0" dy="0.0">measurement theory</tspan>
</text>
<circle cx="914" cy="490" r="3" fill="#B98B67" opacity="0.92"/>
<text x="926.0" y="496.0" fill="#F4F7FB" font-size="16" text-anchor="start" font-family="Avenir Next, Helvetica Neue, Helvetica, Arial, sans-serif">
  <tspan x="926.0" dy="0.0">observer models</tspan>
</text>
<circle cx="914" cy="522" r="3" fill="#B98B67" opacity="0.92"/>
<text x="926.0" y="528.0" fill="#F4F7FB" font-size="16" text-anchor="start" font-family="Avenir Next, Helvetica Neue, Helvetica, Arial, sans-serif">
  <tspan x="926.0" dy="0.0">classicality</tspan>
</text>
</svg>
